<svg
	xmlns="http://www.w3.org/2000/svg"
	viewBox="0 0 88.5186 100">
	<path d="M59.0579,68.1311a22.5348,22.5348,0,0,0,5.6181,2.34c1.2415.3033,2.4546.6039,3.3012.8424,1.5341.4442,3.2144,1.0644,4.6512,1.5279,1.159.3721,2.2844.7983,3.5209,1.2633a16.0333,16.0333,0,0,1,3.378,1.3648,9.4732,9.4732,0,0,1,2.2948,1.5245,5.8671,5.8671,0,0,1,1.908,1.9l.6268,1.4021a5.5147,5.5147,0,0,1-.3428,3.2606,5.3626,5.3626,0,0,1-2.1611,2.0559c-.2451.1782-.4885.3375-.7311.4872-1.1592,1.3167-5.2425,2.6835-11.4593,3.59a16.6451,16.6451,0,0,1-2.0956.2778,124.6077,124.6077,0,0,1-18.803.7115l-.0222.246a9.9726,9.9726,0,1,1-19.8642-1.796l0-.0024a8.4664,8.4664,0,0,1,.115-.8482C17.9258,85.74,9.9366,81.7733,8.0233,79.6154c-.431-.4015-.95-.7825-1.1755-1.0318a5.57,5.57,0,0,1-1.0128-2.2,5.155,5.155,0,0,1,.2209-2.7565c5.8136-7.4115,11.987-14.4754,13.67-26.8511C20.7188,32.65,24.58,25.0992,29.5978,20.7831a35.4549,35.4549,0,0,1,15.9916-9.2859l.04-.0155.0309-.0258a8.5768,8.5768,0,0,1,.1052-1.7937c.061-.3571.1408-.6074.1751-.8811a8.5569,8.5569,0,0,1,.4106-1.5847C47.98,2.5928,53.2609-.4116,58.21.0459,63.4514.53,68.444,4.6078,68.8454,9.9774a12.9544,12.9544,0,0,1-.17,3.5625l.019.0018c-.036.2924-.0712.5755-.1245.8474,7.1137,2.3616,11.695,7.9283,15.4259,14.6681,2.7464,7.9195,4.859,16.5165,2.9965,28.2359C86.44,68.4538,93.23,73.4482,94.2593,78.9317c-2.912-1.6662-5.8228-3.5513-8.9658-4.5613a30.6682,30.6682,0,0,0-8.0173-2.8059,69.03,69.03,0,0,0-7.8835-1.8683A46.76,46.76,0,0,0,59.0579,68.1311Z" transform="translate(-5.7407 0)"/>
</svg>