<svg xmlns="http://www.w3.org/2000/svg" viewBox="0 0 89.5004 100">
	<path d="M59.9209,69.2777A22.9217,22.9217,0,0,0,65.43,72.103c1.2346.4075,2.4406.81,3.28,1.12,1.52.5739,3.1741,1.3381,4.5939,1.9238,1.1454.4706,2.2524.9934,3.4689,1.5645a16.31,16.31,0,0,1,3.3158,1.6559,9.6406,9.6406,0,0,1,2.2046,1.7307,5.9689,5.9689,0,0,1,1.782,2.08l.5228,1.4723a5.61,5.61,0,0,1-.61,3.2791,5.4565,5.4565,0,0,1-2.3571,1.911c-.2629.161-.5225.3029-.7806.4352-1.2815,1.242-5.5325,2.2995-11.91,2.7185a16.9332,16.9332,0,0,1-2.1475.113,126.76,126.76,0,0,1-19.1257-.7917l-.0424.2477a10.1451,10.1451,0,1,1-20-3.42l0-.0024a8.6439,8.6439,0,0,1,.1849-.851C16.791,83.825,9.0082,79.1593,7.2416,76.817c-.4048-.4419-.9005-.87-1.1091-1.141a5.6663,5.6663,0,0,1-.85-2.3128,5.2445,5.2445,0,0,1,.4458-2.7776c6.4922-7.0483,13.3212-13.7151,16.0242-26.13,2.1436-14.2457,6.6664-21.592,12.1029-25.5652a36.0684,36.0684,0,0,1,16.9647-8.13l.0415-.0125.0334-.0237a8.7309,8.7309,0,0,1,.251-1.8106c.0906-.3572.1917-.6046.2485-.8794a8.7072,8.7072,0,0,1,.544-1.574C53.9614,1.9227,59.5583-.6991,64.54.1631c5.2769.9129,10.0118,5.45,9.9867,10.9277a13.1816,13.1816,0,0,1-.459,3.5991l.0191.0033c-.06.2937-.1185.5779-.1944.8494C80.9164,18.51,85.1144,24.524,88.3556,31.6592c2.1478,8.2524,3.5983,17.1407.7664,28.8757C87.6635,71.8087,94.147,77.42,94.75,83.0638c-2.819-1.9241-5.6192-4.07-8.7253-5.3473A31.1976,31.1976,0,0,0,78.12,74.2258a70.2106,70.2106,0,0,0-7.8444-2.5291A47.57,47.57,0,0,0,59.9209,69.2777Z" transform="translate(-5.2498)"/>
</svg>