<svg
	version="1.1" xmlns="http://www.w3.org/2000/svg" xmlns:xlink="http://www.w3.org/1999/xlink"
	x="0px" y="0px" viewBox="0 0 100 100"
	style="enable-background:new 0 0 100 100;" xml:space="preserve">
	<path d="M85.4,85.4c-1.5,1.5-3.4,2.2-5.3,2.2s-3.8-0.7-5.3-2.2L50,60.6L25.2,85.4c-2.9,2.9-7.7,2.9-10.6,0c-1.5-1.5-2.2-3.4-2.2-5.3 s0.7-3.8,2.2-5.3L39.4,50L14.6,25.2c-2.9-2.9-2.9-7.7,0-10.6c1.5-1.5,3.4-2.2,5.3-2.2s3.8,0.7,5.3,2.2L50,39.4l24.8-24.8 c2.9-2.9,7.7-2.9,10.6,0c1.5,1.5,2.2,3.4,2.2,5.3c0,1.9-0.7,3.8-2.2,5.3L60.6,50l24.8,24.8C88.3,77.7,88.3,82.4,85.4,85.4z"/>
</svg>