<svg version="1.1" xmlns="http://www.w3.org/2000/svg" xmlns:xlink="http://www.w3.org/1999/xlink" x="0px" y="0px"
	 viewBox="0 0 58.6 57.6">
	<g>
		<path d="M34.2,34.6h13.1c2.8,0,5,2.2,5,5v13.1c0,2.8-2.2,5-5,5H34.2c-2.8,0-5-2.2-5-5V39.6C29.2,36.8,31.4,34.6,34.2,34.6z"/>
		<path d="M5,5.4h13.1c2.8,0,5,2.2,5,5v13.1c0,2.8-2.2,5-5,5H5c-2.8,0-5-2.2-5-5V10.4C0,7.6,2.2,5.4,5,5.4z"/>
		<path d="M5,34.6h13.1c2.8,0,5,2.2,5,5v13.1c0,2.8-2.2,5-5,5H5c-2.8,0-5-2.2-5-5V39.6C0,36.8,2.2,34.6,5,34.6z"/>
		<path d="M30.3,16.6l5.1-12c1.1-2.5,4-3.7,6.6-2.6l12,5.1c2.5,1.1,3.7,4,2.6,6.6l-5.1,12c-1.1,2.5-4,3.7-6.6,2.6l-12-5.1 C30.5,22.1,29.3,19.2,30.3,16.6z"/>
	</g>
</svg>